<?xml version="1.0" encoding="UTF-8"?>
<svg width="36px" height="36px" viewBox="0 0 36 36" version="1.1" xmlns="http://www.w3.org/2000/svg" xmlns:xlink="http://www.w3.org/1999/xlink">
    <!-- Generator: Sketch 45.2 (43514) - http://www.bohemiancoding.com/sketch -->
    <title>icon_attach__xl__color</title>
    <desc>Created with Sketch.</desc>
    <defs></defs>
    <g id="set" stroke="none" stroke-width="1" fill="none" fill-rule="evenodd">
        <g id="like-copy-2" transform="translate(-167.000000, -282.000000)">
            <rect id="Rectangle" fill="#6D7986" x="-15.5915162" y="187" width="628.591516" height="215"></rect>
            <g id="icon_attach__xl__color" transform="translate(167.000000, 282.000000)" fill="#FFFFFF">
                <rect id="_bg_" fill-opacity="0" x="0" y="0" width="36" height="36"></rect>
                <path d="M23.558,34 L6.558,34 C4.077,34 2.058,31.981 2.058,29.5 L2.058,10.294 L10.292,2 L23.558,2 C26.039,2 28.058,4.019 28.058,6.5 L28.058,12 L27.058,12 L27.058,6.5 C27.058,4.57 25.488,3 23.558,3 L10.708,3 L3.058,10.706 L3.058,29.5 C3.058,31.43 4.628,33 6.558,33 L23.558,33 C25.488,33 27.058,31.43 27.058,29.5 L27.058,28 L28.058,28 L28.058,29.5 C28.058,31.981 26.039,34 23.558,34 L23.558,34 Z" id="Shape"></path>
                <path d="M20.5994919,17.4220678 L20.5994919,23.3994949 C20.5994919,26.1609187 22.8380681,28.3994949 25.5994919,28.3994949 C28.3609156,28.3994949 30.5994919,26.1609187 30.5994919,23.3994949 L30.5994919,13.8994949 C30.5994919,11.9664983 29.0324885,10.3994949 27.0994919,10.3994949 C25.1664953,10.3994949 23.5994919,11.9664983 23.5994919,13.8994949 L23.5994919,22.8994949 C23.5994919,24.0040644 24.4949224,24.8994949 25.5994919,24.8994949 C26.7040614,24.8994949 27.5994919,24.0040644 27.5994919,22.8994949 L27.5994919,19.4252977 L26.5994919,19.4252977 L26.5994919,22.8994949 C26.5994919,23.4517797 26.1517766,23.8994949 25.5994919,23.8994949 C25.0472071,23.8994949 24.5994919,23.4517797 24.5994919,22.8994949 L24.5994919,13.8994949 C24.5994919,12.5187831 25.71878,11.3994949 27.0994919,11.3994949 C28.4802038,11.3994949 29.5994919,12.5187831 29.5994919,13.8994949 L29.5994919,23.3994949 C29.5994919,25.6086339 27.8086309,27.3994949 25.5994919,27.3994949 C23.3903529,27.3994949 21.5994919,25.6086339 21.5994919,23.3994949 L21.5994919,17.4220678 L20.5994919,17.4220678 Z" id="Path-2" fill-rule="nonzero" opacity="0.300000012" transform="translate(25.599492, 19.399495) rotate(-315.000000) translate(-25.599492, -19.399495) "></path>
            </g>
        </g>
    </g>
</svg>