<?xml version="1.0" encoding="UTF-8"?>
<svg width="30px" height="30px" viewBox="0 0 30 30" version="1.1" xmlns="http://www.w3.org/2000/svg" xmlns:xlink="http://www.w3.org/1999/xlink">
    <!-- Generator: Sketch 45.2 (43514) - http://www.bohemiancoding.com/sketch -->
    <title>icon_attach__l__white</title>
    <desc>Created with Sketch.</desc>
    <defs></defs>
    <g id="set" stroke="none" stroke-width="1" fill="none" fill-rule="evenodd">
        <g id="like-copy-2" transform="translate(-118.000000, -43.000000)">
            <g id="icon_attach__l__white" transform="translate(118.000000, 43.000000)">
                <rect id="_bg_" fill-opacity="0" fill="#FFFFFF" x="0" y="0" width="30" height="30"></rect>
                <path d="M6,28 C3.837,28 2.068,26.273 2.002,24.126 L2,8.293 L8.293,2 L19,2 C21.206,2 23,3.794 23,6 L23,8 L22,8 L22,6 C22,4.346 20.654,3 19,3 L8.707,3 L3,8.707 L3,24 C3,25.654 4.346,27 6,27 L19,27 C20.654,27 22,25.654 22,24 L22,22 L23,22 L23,24 C23,26.206 21.206,28 19,28 L6,28 Z" id="Shape" fill="#1C2549"></path>
                <path d="M17.131728,14.2648308 L17.131728,19.242258 C17.131728,21.451397 18.922589,23.242258 21.131728,23.242258 C23.340867,23.242258 25.131728,21.451397 25.131728,19.242258 L25.131728,11.242258 C25.131728,9.58540372 23.7885822,8.24225797 22.131728,8.24225797 C20.4748737,8.24225797 19.131728,9.58540372 19.131728,11.242258 L19.131728,18.742258 C19.131728,19.8468275 20.0271585,20.742258 21.131728,20.742258 C22.2362975,20.742258 23.131728,19.8468275 23.131728,18.742258 L23.131728,16.2680607 L22.131728,16.2680607 L22.131728,18.742258 C22.131728,19.2945427 21.6840127,19.742258 21.131728,19.742258 C20.5794432,19.742258 20.131728,19.2945427 20.131728,18.742258 L20.131728,11.242258 C20.131728,10.1376885 21.0271585,9.24225797 22.131728,9.24225797 C23.2362975,9.24225797 24.131728,10.1376885 24.131728,11.242258 L24.131728,19.242258 C24.131728,20.8991122 22.7885822,22.242258 21.131728,22.242258 C19.4748737,22.242258 18.131728,20.8991122 18.131728,19.242258 L18.131728,14.2648308 L17.131728,14.2648308 Z" id="Path-2" fill="#979797" fill-rule="nonzero" transform="translate(21.131728, 15.742258) rotate(-315.000000) translate(-21.131728, -15.742258) "></path>
            </g>
        </g>
    </g>
</svg>