<?xml version="1.0" encoding="UTF-8"?>
<svg width="36px" height="36px" viewBox="0 0 36 36" version="1.1" xmlns="http://www.w3.org/2000/svg" xmlns:xlink="http://www.w3.org/1999/xlink">
    <!-- Generator: Sketch 45.2 (43514) - http://www.bohemiancoding.com/sketch -->
    <title>icon_attach__xl__white</title>
    <desc>Created with Sketch.</desc>
    <defs></defs>
    <g id="set" stroke="none" stroke-width="1" fill="none" fill-rule="evenodd">
        <g id="like-copy-2" transform="translate(-167.000000, -43.000000)">
            <g id="icon_attach__xl__white" transform="translate(167.000000, 43.000000)">
                <rect id="_bg_" fill-opacity="0" fill="#FFFFFF" x="0" y="0" width="36" height="36"></rect>
                <path d="M23.558,34 L6.558,34 C4.077,34 2.058,31.981 2.058,29.5 L2.058,10.294 L10.292,2 L23.558,2 C26.039,2 28.058,4.019 28.058,6.5 L28.058,12 L27.058,12 L27.058,6.5 C27.058,4.57 25.488,3 23.558,3 L10.708,3 L3.058,10.706 L3.058,29.5 C3.058,31.43 4.628,33 6.558,33 L23.558,33 C25.488,33 27.058,31.43 27.058,29.5 L27.058,28 L28.058,28 L28.058,29.5 C28.058,31.981 26.039,34 23.558,34 L23.558,34 Z" id="Shape" fill="#1C2549"></path>
                <path d="M20.5494888,17.5102972 L20.5494888,23.4877243 C20.5494888,26.2491481 22.7880651,28.4877243 25.5494888,28.4877243 C28.3109126,28.4877243 30.5494888,26.2491481 30.5494888,23.4877243 L30.5494888,13.9877243 C30.5494888,12.0547277 28.9824855,10.4877243 27.0494888,10.4877243 C25.1164922,10.4877243 23.5494888,12.0547277 23.5494888,13.9877243 L23.5494888,22.9877243 C23.5494888,24.0922938 24.4449193,24.9877243 25.5494888,24.9877243 C26.6540583,24.9877243 27.5494888,24.0922938 27.5494888,22.9877243 L27.5494888,19.5135271 L26.5494888,19.5135271 L26.5494888,22.9877243 C26.5494888,23.5400091 26.1017736,23.9877243 25.5494888,23.9877243 C24.9972041,23.9877243 24.5494888,23.5400091 24.5494888,22.9877243 L24.5494888,13.9877243 C24.5494888,12.6070124 25.668777,11.4877243 27.0494888,11.4877243 C28.4302007,11.4877243 29.5494888,12.6070124 29.5494888,13.9877243 L29.5494888,23.4877243 C29.5494888,25.6968633 27.7586278,27.4877243 25.5494888,27.4877243 C23.3403498,27.4877243 21.5494888,25.6968633 21.5494888,23.4877243 L21.5494888,17.5102972 L20.5494888,17.5102972 Z" id="Path-2" fill="#979797" fill-rule="nonzero" transform="translate(25.549489, 19.487724) rotate(-315.000000) translate(-25.549489, -19.487724) "></path>
            </g>
        </g>
    </g>
</svg>