<?xml version="1.0" encoding="UTF-8"?>
<svg width="18px" height="18px" viewBox="0 0 18 18" version="1.1" xmlns="http://www.w3.org/2000/svg" xmlns:xlink="http://www.w3.org/1999/xlink">
    <!-- Generator: Sketch 45.2 (43514) - http://www.bohemiancoding.com/sketch -->
    <title>icon_attachment__s__white</title>
    <desc>Created with Sketch.</desc>
    <defs></defs>
    <g id="set" stroke="none" stroke-width="1" fill="none" fill-rule="evenodd">
        <g id="like-copy-2" transform="translate(-42.000000, -89.000000)">
            <g id="icon_attachment__s__white" transform="translate(42.000000, 89.000000)">
                <rect id="_bg_" fill-opacity="0" fill="#FFFFFF" x="0" y="-5.55111512e-17" width="18" height="18"></rect>
                <path d="M5,5.23999786 L5,13.2399979 C5,15.4491369 6.790861,17.2399979 9,17.2399979 C11.209139,17.2399979 13,15.4491369 13,13.2399979 L13,4.23999786 C13,2.58314361 11.6568542,1.23999786 10,1.23999786 C8.34314575,1.23999786 7,2.58314361 7,4.23999786 L7,11.2399979 C7,12.3445674 7.8954305,13.2399979 9,13.2399979 C10.1045695,13.2399979 11,12.3445674 11,11.2399979 L11,7.23999786 L10,7.23999786 L10,11.2399979 C10,11.7922826 9.55228475,12.2399979 9,12.2399979 C8.44771525,12.2399979 8,11.7922826 8,11.2399979 L8,4.23999786 C8,3.13542836 8.8954305,2.23999786 10,2.23999786 C11.1045695,2.23999786 12,3.13542836 12,4.23999786 L12,13.2399979 C12,14.8968521 10.6568542,16.2399979 9,16.2399979 C7.34314575,16.2399979 6,14.8968521 6,13.2399979 L6,5.23999786 L5,5.23999786 Z" id="Path-3" fill="#1C2549" fill-rule="nonzero" transform="translate(9.000000, 9.239998) rotate(-45.000000) translate(-9.000000, -9.239998) "></path>
            </g>
        </g>
    </g>
</svg>