<?xml version="1.0" encoding="UTF-8"?>
<svg width="30px" height="30px" viewBox="0 0 30 30" version="1.1" xmlns="http://www.w3.org/2000/svg" xmlns:xlink="http://www.w3.org/1999/xlink">
    <!-- Generator: Sketch 45.2 (43514) - http://www.bohemiancoding.com/sketch -->
    <title>icon_attach__l__color</title>
    <desc>Created with Sketch.</desc>
    <defs></defs>
    <g id="set" stroke="none" stroke-width="1" fill="none" fill-rule="evenodd">
        <g id="like-copy-2" transform="translate(-118.000000, -282.000000)">
            <rect id="Rectangle" fill="#6D7986" x="-15.5915162" y="187" width="628.591516" height="215"></rect>
            <g id="icon_attach__l__color" transform="translate(118.000000, 282.000000)" fill="#FFFFFF">
                <rect id="_bg_" fill-opacity="0" x="0" y="0" width="30" height="30"></rect>
                <path d="M6,28 C3.837,28 2.068,26.273 2.002,24.126 L2,8.293 L8.293,2 L19,2 C21.206,2 23,3.794 23,6 L23,8 L22,8 L22,6 C22,4.346 20.654,3 19,3 L8.707,3 L3,8.707 L3,24 C3,25.654 4.346,27 6,27 L19,27 C20.654,27 22,25.654 22,24 L22,22 L23,22 L23,24 C23,26.206 21.206,28 19,28 L6,28 Z" id="Shape"></path>
                <path d="M17.131728,14.0542947 L17.131728,19.0317219 C17.131728,21.2408609 18.922589,23.0317219 21.131728,23.0317219 C23.340867,23.0317219 25.131728,21.2408609 25.131728,19.0317219 L25.131728,11.0317219 C25.131728,9.37486763 23.7885822,8.03172188 22.131728,8.03172188 C20.4748737,8.03172188 19.131728,9.37486763 19.131728,11.0317219 L19.131728,18.5317219 C19.131728,19.6362914 20.0271585,20.5317219 21.131728,20.5317219 C22.2362975,20.5317219 23.131728,19.6362914 23.131728,18.5317219 L23.131728,16.0575246 L22.131728,16.0575246 L22.131728,18.5317219 C22.131728,19.0840066 21.6840127,19.5317219 21.131728,19.5317219 C20.5794432,19.5317219 20.131728,19.0840066 20.131728,18.5317219 L20.131728,11.0317219 C20.131728,9.92715238 21.0271585,9.03172188 22.131728,9.03172188 C23.2362975,9.03172188 24.131728,9.92715238 24.131728,11.0317219 L24.131728,19.0317219 C24.131728,20.6885761 22.7885822,22.0317219 21.131728,22.0317219 C19.4748737,22.0317219 18.131728,20.6885761 18.131728,19.0317219 L18.131728,14.0542947 L17.131728,14.0542947 Z" id="Path-2" fill-rule="nonzero" opacity="0.300000012" transform="translate(21.131728, 15.531722) rotate(-315.000000) translate(-21.131728, -15.531722) "></path>
            </g>
        </g>
    </g>
</svg>