<?xml version="1.0" encoding="UTF-8"?>
<svg width="18px" height="18px" viewBox="0 0 18 18" version="1.1" xmlns="http://www.w3.org/2000/svg" xmlns:xlink="http://www.w3.org/1999/xlink">
    <!-- Generator: Sketch 45.2 (43514) - http://www.bohemiancoding.com/sketch -->
    <title>icon_attachment__s__color</title>
    <desc>Created with Sketch.</desc>
    <defs></defs>
    <g id="set" stroke="none" stroke-width="1" fill="none" fill-rule="evenodd">
        <g id="like-copy-2" transform="translate(-42.000000, -210.000000)">
            <rect id="Rectangle" fill="#6D7986" x="-15.5915162" y="187" width="628.591516" height="215"></rect>
            <g id="icon_attachment__s__color" transform="translate(42.000000, 210.000000)" fill="#FFFFFF">
                <rect id="Rectangle-7-Copy-2" fill-opacity="0" x="0" y="-2.77555756e-17" width="18" height="18"></rect>
                <path d="M5,5 L5,13 C5,15.209139 6.790861,17 9,17 C11.209139,17 13,15.209139 13,13 L13,4 C13,2.34314575 11.6568542,1 10,1 C8.34314575,1 7,2.34314575 7,4 L7,11 C7,12.1045695 7.8954305,13 9,13 C10.1045695,13 11,12.1045695 11,11 L11,7 L10,7 L10,11 C10,11.5522847 9.55228475,12 9,12 C8.44771525,12 8,11.5522847 8,11 L8,4 C8,2.8954305 8.8954305,2 10,2 C11.1045695,2 12,2.8954305 12,4 L12,13 C12,14.6568542 10.6568542,16 9,16 C7.34314575,16 6,14.6568542 6,13 L6,5 L5,5 Z" id="Path-3" fill-rule="nonzero" transform="translate(9.000000, 9.000000) rotate(-45.000000) translate(-9.000000, -9.000000) "></path>
            </g>
        </g>
    </g>
</svg>