<?xml version="1.0" encoding="UTF-8"?>
<svg width="24px" height="24px" viewBox="0 0 24 24" version="1.1" xmlns="http://www.w3.org/2000/svg" xmlns:xlink="http://www.w3.org/1999/xlink">
    <!-- Generator: Sketch 45.2 (43514) - http://www.bohemiancoding.com/sketch -->
    <title>icon_attach__m__color</title>
    <desc>Created with Sketch.</desc>
    <defs></defs>
    <g id="set" stroke="none" stroke-width="1" fill="none" fill-rule="evenodd">
        <g id="like-copy-2" transform="translate(-78.000000, -282.000000)">
            <rect id="Rectangle" fill="#6D7986" x="-15.5915162" y="187" width="628.591516" height="215"></rect>
            <g id="icon_attach__m__color" transform="translate(78.000000, 282.000000)" fill="#FFFFFF">
                <rect id="_bg_" fill-opacity="0" x="0" y="0" width="24" height="24"></rect>
                <path d="M19,8 L18,8 L18,4 C18,2.897 17.103,2 16,2 L6.707,2 L2,6.707 L2,7 L1,7 L1,6.293 L6.293,1 L16,1 C17.654,1 19,2.346 19,4 L19,8 L19,8 Z" id="Shape"></path>
                <path d="M16,23 L4,23 C2.346,23 1,21.654 1,20 L1,6.999 L2,6.999 L2,20 C2,21.103 2.897,22 4,22 L16,22 C17.103,22 18,21.103 18,20 L18,19 L19,19 L19,20 C19,21.654 17.654,23 16,23 L16,23 Z" id="Shape"></path>
                <path d="M13.7175144,11.2812912 L13.7175144,15.7587184 C13.7175144,17.691715 15.2845178,19.2587184 17.2175144,19.2587184 C19.150511,19.2587184 20.7175144,17.691715 20.7175144,15.7587184 L20.7175144,9.75871836 C20.7175144,8.37800648 19.5982263,7.25871836 18.2175144,7.25871836 C16.8368025,7.25871836 15.7175144,8.37800648 15.7175144,9.75871836 L15.7175144,15.2587184 C15.7175144,16.0871455 16.3890873,16.7587184 17.2175144,16.7587184 C18.0459415,16.7587184 18.7175144,16.0871455 18.7175144,15.2587184 L18.7175144,13.2845211 L17.7175144,13.2845211 L17.7175144,15.2587184 C17.7175144,15.5348607 17.4936568,15.7587184 17.2175144,15.7587184 C16.941372,15.7587184 16.7175144,15.5348607 16.7175144,15.2587184 L16.7175144,9.75871836 C16.7175144,8.93029123 17.3890873,8.25871836 18.2175144,8.25871836 C19.0459415,8.25871836 19.7175144,8.93029123 19.7175144,9.75871836 L19.7175144,15.7587184 C19.7175144,17.1394302 18.5982263,18.2587184 17.2175144,18.2587184 C15.8368025,18.2587184 14.7175144,17.1394302 14.7175144,15.7587184 L14.7175144,11.2812912 L13.7175144,11.2812912 Z" id="Path-2" fill-rule="nonzero" opacity="0.300000012" transform="translate(17.217514, 13.258718) rotate(-315.000000) translate(-17.217514, -13.258718) "></path>
            </g>
        </g>
    </g>
</svg>