<?xml version="1.0" encoding="UTF-8"?>
<svg width="18px" height="18px" viewBox="0 0 18 18" version="1.1" xmlns="http://www.w3.org/2000/svg" xmlns:xlink="http://www.w3.org/1999/xlink">
    <!-- Generator: Sketch 45.2 (43514) - http://www.bohemiancoding.com/sketch -->
    <title>icon_attach__s__white</title>
    <desc>Created with Sketch.</desc>
    <defs></defs>
    <g id="set" stroke="none" stroke-width="1" fill="none" fill-rule="evenodd">
        <g id="like-copy-2" transform="translate(-42.000000, -43.000000)">
            <g id="icon_attach__s__white" transform="translate(42.000000, 43.000000)">
                <rect id="Rectangle" fill-opacity="0" fill="#FFFFFF" x="0" y="0" width="18" height="18"></rect>
                <path d="M12.5,17 L2.5,17 C1.673,17 1,16.3665882 1,15.5882353 L1,5.04047059 L5.293,1 L12.441,1 C13.301,1 14,1.65788235 14,2.46729412 L14,5.70588235 L13,5.70588235 L13,2.46729412 C13,2.17741176 12.749,1.94117647 12.441,1.94117647 L5.707,1.94117647 L2,5.43011765 L2,15.5882353 C2,15.8470588 2.224,16.0588235 2.5,16.0588235 L12.5,16.0588235 C12.775,16.0588235 13,15.8470588 13,15.5882353 L14,15.5882353 C14,16.3665882 13.327,17 12.5,17 L12.5,17 Z" id="Shape" fill="#1C2549"></path>
                <path d="M8.28718281,8.95169966 L8.28718281,11.9371843 C8.28718281,13.870181 9.85418619,15.4371843 11.7871828,15.4371843 C13.7201794,15.4371843 15.2871828,13.870181 15.2871828,11.9371843 L15.2871828,7.43718434 C15.2871828,6.05647246 14.1678947,4.93718434 12.7871828,4.93718434 C11.4064709,4.93718434 10.2871828,6.05647246 10.2871828,7.43718434 L10.2871828,11.4371843 C10.2871828,12.2656115 10.9587557,12.9371843 11.7871828,12.9371843 C12.6156099,12.9371843 13.2871828,12.2656115 13.2871828,11.4371843 L13.2871828,10.4516031 L12.2871828,10.4516031 L12.2871828,11.4371843 C12.2871828,11.7133267 12.0633252,11.9371843 11.7871828,11.9371843 C11.5110404,11.9371843 11.2871828,11.7133267 11.2871828,11.4371843 L11.2871828,7.43718434 C11.2871828,6.60875721 11.9587557,5.93718434 12.7871828,5.93718434 C13.6156099,5.93718434 14.2871828,6.60875721 14.2871828,7.43718434 L14.2871828,11.9371843 C14.2871828,13.3178962 13.1678947,14.4371843 11.7871828,14.4371843 C10.4064709,14.4371843 9.28718281,13.3178962 9.28718281,11.9371843 L9.28718281,8.95169966 L8.28718281,8.95169966 Z" id="Path-2" fill="#979797" fill-rule="nonzero" transform="translate(11.787183, 10.187184) rotate(-315.000000) translate(-11.787183, -10.187184) "></path>
            </g>
        </g>
    </g>
</svg>