<?xml version="1.0" encoding="UTF-8"?>
<svg width="18px" height="18px" viewBox="0 0 18 18" version="1.1" xmlns="http://www.w3.org/2000/svg" xmlns:xlink="http://www.w3.org/1999/xlink">
    <!-- Generator: Sketch 45.2 (43514) - http://www.bohemiancoding.com/sketch -->
    <title>icon_attach__s__color</title>
    <desc>Created with Sketch.</desc>
    <defs></defs>
    <g id="set" stroke="none" stroke-width="1" fill="none" fill-rule="evenodd">
        <g id="like-copy-2" transform="translate(-42.000000, -282.000000)">
            <rect id="Rectangle" fill="#6D7986" x="-15.5915162" y="187" width="628.591516" height="215"></rect>
            <g id="icon_attach__s__color" transform="translate(42.000000, 282.000000)" fill="#FFFFFF">
                <rect id="Rectangle" fill-opacity="0" x="0" y="0" width="18" height="18"></rect>
                <path d="M12.5,17 L2.5,17 C1.673,17 1,16.3665882 1,15.5882353 L1,5.04047059 L5.293,1 L12.441,1 C13.301,1 14,1.65788235 14,2.46729412 L14,5.70588235 L13,5.70588235 L13,2.46729412 C13,2.17741176 12.749,1.94117647 12.441,1.94117647 L5.707,1.94117647 L2,5.43011765 L2,15.5882353 C2,15.8470588 2.224,16.0588235 2.5,16.0588235 L12.5,16.0588235 C12.775,16.0588235 13,15.8470588 13,15.5882353 L14,15.5882353 C14,16.3665882 13.327,17 12.5,17 L12.5,17 Z" id="Shape"></path>
                <path d="M8.28718281,8.90779433 L8.28718281,11.893279 C8.28718281,13.8262756 9.85418619,15.393279 11.7871828,15.393279 C13.7201794,15.393279 15.2871828,13.8262756 15.2871828,11.893279 L15.2871828,7.39327901 C15.2871828,6.01256713 14.1678947,4.89327901 12.7871828,4.89327901 C11.4064709,4.89327901 10.2871828,6.01256713 10.2871828,7.39327901 L10.2871828,11.393279 C10.2871828,12.2217061 10.9587557,12.893279 11.7871828,12.893279 C12.6156099,12.893279 13.2871828,12.2217061 13.2871828,11.393279 L13.2871828,10.4076978 L12.2871828,10.4076978 L12.2871828,11.393279 C12.2871828,11.6694214 12.0633252,11.893279 11.7871828,11.893279 C11.5110404,11.893279 11.2871828,11.6694214 11.2871828,11.393279 L11.2871828,7.39327901 C11.2871828,6.56485188 11.9587557,5.89327901 12.7871828,5.89327901 C13.6156099,5.89327901 14.2871828,6.56485188 14.2871828,7.39327901 L14.2871828,11.893279 C14.2871828,13.2739909 13.1678947,14.393279 11.7871828,14.393279 C10.4064709,14.393279 9.28718281,13.2739909 9.28718281,11.893279 L9.28718281,8.90779433 L8.28718281,8.90779433 Z" id="Path-2" fill-rule="nonzero" opacity="0.300000012" transform="translate(11.787183, 10.143279) rotate(-315.000000) translate(-11.787183, -10.143279) "></path>
            </g>
        </g>
    </g>
</svg>