<?xml version="1.0" encoding="UTF-8"?>
<svg width="24px" height="24px" viewBox="0 0 24 24" version="1.1" xmlns="http://www.w3.org/2000/svg" xmlns:xlink="http://www.w3.org/1999/xlink">
    <!-- Generator: Sketch 45.2 (43514) - http://www.bohemiancoding.com/sketch -->
    <title>icon_attachment__m__color</title>
    <desc>Created with Sketch.</desc>
    <defs></defs>
    <g id="set" stroke="none" stroke-width="1" fill="none" fill-rule="evenodd">
        <g id="like-copy-2" transform="translate(-78.000000, -210.000000)">
            <rect id="Rectangle" fill="#6D7986" x="-15.5915162" y="187" width="628.591516" height="215"></rect>
            <g id="icon_attachment__m__color" transform="translate(78.000000, 210.000000)">
                <rect id="Rectangle-7-Copy" x="0" y="0" width="24" height="24"></rect>
                <path d="M7,8 L7,17 C7,19.7614237 9.23857625,22 12,22 C14.7614237,22 17,19.7614237 17,17 L17,6 C17,3.790861 15.209139,2 13,2 C10.790861,2 9,3.790861 9,6 L9,15 C9,16.6568542 10.3431458,18 12,18 C13.6568542,18 15,16.6568542 15,15 L15,11 L14,11 L14,15 C14,16.1045695 13.1045695,17 12,17 C10.8954305,17 10,16.1045695 10,15 L10,6 C10,4.34314575 11.3431458,3 13,3 C14.6568542,3 16,4.34314575 16,6 L16,17 C16,19.209139 14.209139,21 12,21 C9.790861,21 8,19.209139 8,17 L8,8 L7,8 Z" id="Path-4" fill="#FFFFFF" fill-rule="nonzero" transform="translate(12.000000, 12.000000) rotate(-45.000000) translate(-12.000000, -12.000000) "></path>
            </g>
        </g>
    </g>
</svg>