<?xml version="1.0" encoding="UTF-8"?>
<svg width="36px" height="36px" viewBox="0 0 36 36" version="1.1" xmlns="http://www.w3.org/2000/svg" xmlns:xlink="http://www.w3.org/1999/xlink">
    <!-- Generator: Sketch 45.2 (43514) - http://www.bohemiancoding.com/sketch -->
    <title>icon_attachment__xl__color</title>
    <desc>Created with Sketch.</desc>
    <defs></defs>
    <g id="set" stroke="none" stroke-width="1" fill="none" fill-rule="evenodd">
        <g id="like-copy-2" transform="translate(-167.000000, -210.000000)">
            <rect id="Rectangle" fill="#6D7986" x="-15.5915162" y="187" width="628.591516" height="215"></rect>
            <g id="icon_attachment__xl__color" transform="translate(167.000000, 210.000000)">
                <rect id="Rectangle-7-Copy" x="0" y="0" width="36" height="36"></rect>
                <path d="M9,11 L9,25 C9,29.9705627 13.0294373,34 18,34 C22.9705627,34 27,29.9705627 27,25 L27,9 C27,5.13400675 23.8659932,2 20,2 C16.1340068,2 13,5.13400675 13,9 L13,23 C13,25.7614237 15.2385763,28 18,28 C20.7614237,28 23,25.7614237 23,23 L23,17 L22,17 L22,23 C22,25.209139 20.209139,27 18,27 C15.790861,27 14,25.209139 14,23 L14,9 C14,5.6862915 16.6862915,3 20,3 C23.3137085,3 26,5.6862915 26,9 L26,25 C26,29.418278 22.418278,33 18,33 C13.581722,33 10,29.418278 10,25 L10,11 L9,11 Z" id="Path-4" fill="#FFFFFF" fill-rule="nonzero" transform="translate(18.000000, 18.000000) rotate(-45.000000) translate(-18.000000, -18.000000) "></path>
            </g>
        </g>
    </g>
</svg>