<?xml version="1.0" encoding="UTF-8"?>
<svg width="30px" height="30px" viewBox="0 0 30 30" version="1.1" xmlns="http://www.w3.org/2000/svg" xmlns:xlink="http://www.w3.org/1999/xlink">
    <!-- Generator: Sketch 45.2 (43514) - http://www.bohemiancoding.com/sketch -->
    <title>icon_attachment__l__color</title>
    <desc>Created with Sketch.</desc>
    <defs></defs>
    <g id="set" stroke="none" stroke-width="1" fill="none" fill-rule="evenodd">
        <g id="like-copy-2" transform="translate(-118.000000, -210.000000)">
            <rect id="Rectangle" fill="#6D7986" x="-15.5915162" y="187" width="628.591516" height="215"></rect>
            <g id="icon_attachment__l__color" transform="translate(118.000000, 210.000000)">
                <rect id="Rectangle-7-Copy" x="0" y="0" width="30" height="30"></rect>
                <path d="M8,11 L8,21 C8,24.8659932 11.1340068,28 15,28 C18.8659932,28 22,24.8659932 22,21 L22,7.5 C22,4.46243388 19.5375661,2 16.5,2 C13.4624339,2 11,4.46243388 11,7.5 L11,19 C11,21.209139 12.790861,23 15,23 C17.209139,23 19,21.209139 19,19 L19,14 L18,14 L18,19 C18,20.6568542 16.6568542,22 15,22 C13.3431458,22 12,20.6568542 12,19 L12,7.5 C12,5.01471863 14.0147186,3 16.5,3 C18.9852814,3 21,5.01471863 21,7.5 L21,21 C21,24.3137085 18.3137085,27 15,27 C11.6862915,27 9,24.3137085 9,21 L9,11 L8,11 Z" id="Path-4" fill="#FFFFFF" fill-rule="nonzero" transform="translate(15.000000, 15.000000) rotate(-45.000000) translate(-15.000000, -15.000000) "></path>
            </g>
        </g>
    </g>
</svg>